<mxfile host="app.diagrams.net" modified="2024-03-09T16:07:40.484Z" agent="Mozilla/5.0 (Windows NT 10.0; Win64; x64) AppleWebKit/537.36 (KHTML, like Gecko) Chrome/122.0.0.0 Safari/537.36" etag="ut1xCun-uuctNT7lNpSt" version="24.0.2" type="github">
  <diagram name="Strona-1" id="KzcGPtAOBDwFxc_ya4PI">
    <mxGraphModel dx="1050" dy="564" grid="1" gridSize="10" guides="1" tooltips="1" connect="1" arrows="1" fold="1" page="1" pageScale="1" pageWidth="827" pageHeight="1169" math="0" shadow="0">
      <root>
        <mxCell id="0" />
        <mxCell id="1" parent="0" />
        <mxCell id="gUT56NK3SuksapCavz_R-1" value="App" style="whiteSpace=wrap;html=1;aspect=fixed;" vertex="1" parent="1">
          <mxGeometry x="374" y="90" width="80" height="80" as="geometry" />
        </mxCell>
        <mxCell id="gUT56NK3SuksapCavz_R-2" value="" style="endArrow=none;html=1;rounded=0;" edge="1" parent="1" source="gUT56NK3SuksapCavz_R-1" target="gUT56NK3SuksapCavz_R-3">
          <mxGeometry width="50" height="50" relative="1" as="geometry">
            <mxPoint x="324" y="220" as="sourcePoint" />
            <mxPoint x="374" y="170" as="targetPoint" />
          </mxGeometry>
        </mxCell>
        <mxCell id="gUT56NK3SuksapCavz_R-3" value="AddItemPopup" style="whiteSpace=wrap;html=1;aspect=fixed;" vertex="1" parent="1">
          <mxGeometry x="210" y="230" width="80" height="80" as="geometry" />
        </mxCell>
        <mxCell id="gUT56NK3SuksapCavz_R-4" value="List" style="whiteSpace=wrap;html=1;aspect=fixed;" vertex="1" parent="1">
          <mxGeometry x="500" y="230" width="80" height="80" as="geometry" />
        </mxCell>
        <mxCell id="gUT56NK3SuksapCavz_R-5" value="" style="endArrow=none;html=1;rounded=0;" edge="1" parent="1" source="gUT56NK3SuksapCavz_R-4" target="gUT56NK3SuksapCavz_R-1">
          <mxGeometry width="50" height="50" relative="1" as="geometry">
            <mxPoint x="390" y="320" as="sourcePoint" />
            <mxPoint x="440" y="270" as="targetPoint" />
          </mxGeometry>
        </mxCell>
        <mxCell id="gUT56NK3SuksapCavz_R-6" value="" style="endArrow=none;html=1;rounded=0;entryX=0.5;entryY=1;entryDx=0;entryDy=0;exitX=0.5;exitY=0;exitDx=0;exitDy=0;" edge="1" parent="1" source="gUT56NK3SuksapCavz_R-7" target="gUT56NK3SuksapCavz_R-4">
          <mxGeometry width="50" height="50" relative="1" as="geometry">
            <mxPoint x="540" y="380" as="sourcePoint" />
            <mxPoint x="500" y="270" as="targetPoint" />
          </mxGeometry>
        </mxCell>
        <mxCell id="gUT56NK3SuksapCavz_R-7" value="SingleTask" style="whiteSpace=wrap;html=1;aspect=fixed;" vertex="1" parent="1">
          <mxGeometry x="500" y="410" width="80" height="80" as="geometry" />
        </mxCell>
        <mxCell id="gUT56NK3SuksapCavz_R-8" value="render:bool,&lt;div&gt;addTask:function&lt;/div&gt;" style="text;html=1;align=center;verticalAlign=middle;whiteSpace=wrap;rounded=0;" vertex="1" parent="1">
          <mxGeometry x="240" y="160" width="110" height="30" as="geometry" />
        </mxCell>
        <mxCell id="gUT56NK3SuksapCavz_R-9" value="tasks: Task[],&lt;div&gt;toggleTask: function&lt;/div&gt;&lt;div&gt;deleteTask:&lt;/div&gt;&lt;div&gt;function&lt;/div&gt;" style="text;html=1;align=center;verticalAlign=middle;whiteSpace=wrap;rounded=0;" vertex="1" parent="1">
          <mxGeometry x="440" y="140" width="220" height="110" as="geometry" />
        </mxCell>
        <mxCell id="gUT56NK3SuksapCavz_R-10" value="task: Task,&lt;div&gt;toggleTask: function&lt;/div&gt;&lt;div&gt;deleteTask:&lt;/div&gt;&lt;div&gt;function&lt;/div&gt;" style="text;html=1;align=center;verticalAlign=middle;whiteSpace=wrap;rounded=0;" vertex="1" parent="1">
          <mxGeometry x="490" y="310" width="220" height="110" as="geometry" />
        </mxCell>
      </root>
    </mxGraphModel>
  </diagram>
</mxfile>
